<?xml version="1.0" encoding="UTF-8"?>
<!DOCTYPE svg PUBLIC "-//W3C//DTD SVG 1.1//EN" "http://www.w3.org/Graphics/SVG/1.1/DTD/svg11.dtd">
<!-- Creator: CorelDRAW 2021 (64-Bit) -->
<svg xmlns="http://www.w3.org/2000/svg" xml:space="preserve" width="210mm" height="297mm" version="1.1" style="shape-rendering:geometricPrecision; text-rendering:geometricPrecision; image-rendering:optimizeQuality; fill-rule:evenodd; clip-rule:evenodd"
viewBox="0 0 21000 29700"
 xmlns:xlink="http://www.w3.org/1999/xlink"
 xmlns:xodm="http://www.corel.com/coreldraw/odm/2003">
 <defs>
  <style type="text/css">
   <![CDATA[
    .str0 {stroke:white;stroke-width:20;stroke-miterlimit:22.9256}
    .fil1 {fill:white}
    .fil0 {fill:white;fill-rule:nonzero}
   ]]>
  </style>
 </defs>
 <g id="Слой_x0020_1">
  <metadata id="CorelCorpID_0Corel-Layer"/>
  <g id="_2587285892384">
   <g>
    <path class="fil0" d="M7948.88 11969.01c-258.74,13.74 -502.08,98.05 -708.57,245.42 -298.29,212.94 -494.58,534.96 -546.41,896.11 -10.2,70.57 -12.49,105.54 -12.49,189.43 0,83.88 2.29,118.85 12.49,189.42 30.18,211.28 109.49,409.44 233.13,582.84 212.12,297.66 534.97,494.37 895.91,546.2 70.57,10.2 105.54,12.49 189.42,12.49 83.89,0 118.86,-2.29 189.43,-12.49 211.07,-30.18 410.27,-109.91 582.63,-232.93 298.28,-212.94 494.58,-534.96 546.41,-896.11 10.2,-70.57 12.49,-105.54 12.49,-189.42 0,-83.89 -2.29,-118.86 -12.49,-189.43 -44.97,-314.31 -200.87,-601.98 -439.21,-811.18 -214.61,-188.17 -474.81,-299.75 -761.65,-326.39 -33.72,-3.12 -149.04,-5.62 -181.09,-3.96zm172.97 295.38c226.89,21.65 440.05,123.02 612.61,291.42 88.05,85.97 156.95,181.09 211.48,291.42 37.68,76.18 57.87,133.22 80.35,226.68 21.44,89.71 26.65,128.22 28.31,210.86 1.25,62.03 -0.41,95.75 -6.87,144.25 -25.81,191.51 -110.74,380.93 -240.42,536.01 -98.87,118.02 -221.27,213.36 -354.7,276.22 -37.05,17.49 -46.62,21.44 -99.91,41.22 -92.01,34.34 -160.28,50.37 -248.75,58.49 -35.8,3.33 -125.93,3.33 -161.32,0 -222.73,-20.82 -433.59,-110.74 -609.9,-259.99 -29.76,-25.19 -104.91,-101.37 -128.01,-129.47 -59.74,-73.27 -103.04,-141.76 -138.84,-219.61 -16.03,-34.97 -51.21,-125.1 -59.95,-154.03 -30.39,-100.34 -42.68,-198.59 -38.3,-303.91 16.02,-372.81 253.53,-738.33 592.2,-910.69 111.36,-56.62 230.85,-90.13 350.54,-97.83 72.85,-4.79 167.98,-5.21 211.48,-1.04l0 0z"/>
    <path class="fil0" d="M8241.13 12946.1l-398.83 199.41 -199 398.42c-109.7,218.98 -199.2,398.82 -199.2,399.45 0,0.83 179.63,-88.47 399.03,-198.17l399.25 -199.62 199.41 -398.83c109.7,-219.39 199.21,-399.03 198.79,-399.45 -0.42,-0.41 -180.06,89.09 -399.45,198.79l0 0zm-261.24 461.9l126.77 126.77 -254.16 127.18 -254.37 127.18 126.98 -253.95c69.94,-139.67 127.18,-253.95 127.6,-253.95 0.21,0 57.45,57.04 127.18,126.77z"/>
   </g>
   <polygon class="fil1 str0" points="10557.09,11773.78 10492.89,11773.78 10492.89,14932.56 10557.09,14932.56 "/>
   <path class="fil0" d="M12198.64 14286.92l-491.65 -1867.51 256.48 0 279.95 1224.58c30.43,128.24 57.38,255.61 80.42,381.67 49.12,-199.1 77.81,-313.86 86.07,-344.29l352.98 -1261.96 297.78 0 267.78 945.49c65.64,234.74 114.33,455.14 145.63,660.76 24.77,-117.81 56.51,-253 95.19,-405.58l291.7 -1200.67 248.21 0 -511.21 1867.51 -240.39 0 -391.68 -1422.8c-33.04,-119.11 -53.03,-192.14 -60.42,-219.09 -21.3,85.2 -40.43,158.23 -56.95,218.65l-391.67 1423.24 -258.22 0z"/>
   <path class="fil0" d="M10247.64 8319.93c-188.84,6.37 -293.86,16.98 -615.31,60.47l-387.22 54.11 -415.87 112.45c-415.86,112.45 -416.92,112.45 -816.87,275.83 -398.89,163.37 -402.07,164.43 -767.01,372.36 -349.03,200.51 -381.92,221.73 -716.1,469.97 -341.6,253.55 -357.51,267.34 -646.07,547.42 -281.13,273.7 -308.71,303.4 -571.81,632.28 -272.65,338.42 -281.13,351.15 -500.74,710.79 -219.6,359.63 -227.02,373.43 -398.88,758.52 -160.2,357.52 -183.54,416.93 -257.8,663.05 -45.61,148.52 -100.78,329.93 -123.06,403.14 -40.31,129.42 -59.41,224.9 -147.46,747.91 -41.37,244 -43.5,271.59 -59.41,678.96l-16.97 424.35 43.49 423.29c23.34,233.4 47.74,443.45 53.05,466.79 5.3,24.4 50.92,207.93 99.72,409.5l91.23 366 159.14 397.83c115.63,289.62 210.05,500.73 342.66,774.44l184.59 376.61 314.02 3.18c172.92,1.06 315.08,-1.06 315.08,-6.37 0,-4.24 -79.56,-163.37 -176.1,-353.27 -106.09,-207.93 -244.01,-500.73 -347.97,-741.55l-172.93 -397.83 -112.45 -408.44 -111.39 -408.43 -41.37 -419.05 -42.44 -419.04 24.4 -434.96 24.4 -434.96 79.57 -416.93 80.62 -415.86 137.92 -412.69c137.91,-411.62 138.97,-413.74 327.81,-803.08 186.71,-386.16 192.02,-396.77 417.98,-741.55 229.15,-347.97 230.21,-350.1 513.46,-673.66l283.26 -323.57 325.69 -276.89 324.63 -277.95 362.82 -230.21 363.88 -231.27 393.59 -177.17 394.64 -178.23 413.74 -124.12 413.74 -124.12 413.74 -63.66 413.75 -64.71 445.56 -4.24 445.57 -5.31 360.7 48.81c198.38,27.58 392.53,54.1 431.78,59.41 39.25,6.36 257.79,63.65 485.88,128.36l414.8 117.76 396.77 173.98 396.77 173.99 369.18 231.27 369.19 230.21 323.57 272.65 324.63 271.58 286.43 322.51c283.26,318.26 288.56,325.69 525.14,676.84l239.76 355.39 188.83 386.16 187.78 386.16 136.85 409.5 136.85 409.49 79.57 424.35 78.5 424.35 21.22 429.66 21.22 429.66 -46.68 429.65c-43.49,398.89 -49.86,442.38 -94.42,604.7 -25.46,96.54 -74.26,274.76 -107.15,397.83 -53.04,197.32 -78.5,268.4 -224.9,615.31 -109.27,259.91 -229.15,519.83 -354.34,771.25 -105.02,209 -189.89,381.92 -189.89,385.1 0,3.18 151.7,5.31 337.36,5.31l336.3 0 183.53 -406.32c162.31,-360.7 240.82,-554.84 437.08,-1073.61 35.01,-90.17 86.99,-277.95 152.76,-541.05l99.73 -403.13 38.19 -413.74 38.19 -413.74 -22.28 -419.05 -22.27 -419.04 -83.81 -434.96c-48.8,-252.49 -98.66,-481.64 -119.88,-546.36 -19.1,-61.53 -78.51,-247.18 -132.61,-413.74 -89.11,-280.07 -110.33,-332.05 -277.95,-694.87 -175.05,-379.79 -187.78,-404.19 -410.56,-763.83 -216.42,-351.15 -244,-390.4 -498.61,-710.79 -259.92,-327.81 -280.07,-350.09 -578.18,-642.89 -305.54,-299.17 -314.02,-306.59 -649.26,-556.96 -334.18,-249.31 -345.85,-256.73 -715.03,-463.6l-375.55 -210.06 -409.5 -157.01 -409.49 -157 -424.35 -101.85 -424.36 -101.85 -424.35 -48.8c-461.48,-51.98 -559.08,-55.16 -1161.66,-37.13l0 0.01z"/>
   <path class="fil0" d="M16491.81 18300.63c-604.06,-303.39 -862.54,-687.24 -1094.58,-687.24 -99.45,0 -450.85,215.02 -819.17,331.44 -729.29,236.36 -976.62,55.19 -1753.78,55.19 -769.81,0 -1179.66,293.55 -2376.73,-80.39 -1407,-440.97 -1491.71,-458.61 -2265.19,-458.61 -920.82,0 -1023.95,24.69 -2500.94,589.14 -500.93,190.5 -757.27,296.57 -889.87,324.8 -9.56,2.11 -30.86,7.44 -40.74,9.55l86.28 179.5 11493.74 -112.71 160.98 -150.67z"/>
   <path class="fil0" d="M6969.64 15517.65c-9.52,1.3 -17.3,9.95 -37.63,40.65 -14.27,21.19 -26.81,38.49 -28.11,38.49 -0.86,0 -9.94,-17.73 -19.89,-39.36l-18.59 -39.35 -19.46 3.03c-224.44,31.57 -424.23,132.76 -550.07,277.63 -37.19,42.38 -70.49,89.95 -86.06,121.52 -6.05,12.1 -11.68,22.05 -12.97,22.05 -1.3,0 -9.08,-13.84 -17.3,-31.14 -47.57,-96.86 -147.03,-195.03 -254.71,-251.25 -46.71,-24.21 -110.71,-49.73 -127.57,-51.03 -4.76,-0.43 -22.49,7.79 -38.92,17.73 -16,9.95 -30.27,17.3 -31.57,16.01 -1.3,-0.87 -7.35,-19.9 -13.84,-41.95 -13.41,-46.71 -8.65,-44.11 -86.49,-51.03 -218.38,-19.89 -412.12,18.16 -547.48,107.25 -31.57,20.75 -92.97,76.97 -92.97,85.19 0,3.02 10.81,1.73 31.57,-3.03 78.27,-19.89 207.57,-28.97 278.06,-19.89l26.38 3.46 33.3 -24.65c18.16,-13.41 34.16,-23.35 35.02,-22.49 1.3,0.87 4.33,16.44 6.92,34.17l4.76 32.43 50.16 5.62c267.69,28.54 499.05,139.25 606.73,291.04 9.08,12.54 9.51,13.4 1.29,10.37 -79.13,-32.43 -137.95,-45.4 -225.3,-48.86l-65.73 -2.6 -22.06 20.33c-12.54,10.81 -24.22,19.89 -25.95,19.89 -2.16,0 -12.54,-9.95 -23.35,-22.05l-20.32 -22.49 -33.3 0.86c-105.95,2.6 -228.76,36.33 -322.17,88.66 -99.03,55.35 -206.28,172.11 -247.79,269.41l-12.11 28.54 27.67 24.65 27.25 24.65 -35.9 16.86 -35.89 16.44 2.6 52.32c4.75,94.28 28.1,186.39 67.02,263.79 18.17,36.76 48.87,85.63 55.79,89.95 2.16,1.3 3.46,-34.16 3.46,-78.27 0,-66.6 1.73,-89.52 9.95,-129.3 21.19,-105.09 65.29,-204.55 126.7,-284.55l16.44 -22.06 1.29 -48.43 1.3 -48.43 38.05 27.67 38.06 27.68 41.95 -18.59c69.62,-30.71 136.22,-48.44 225.73,-60.55 53.63,-7.35 193.74,-8.65 254.28,-2.16 50.16,5.62 140.11,21.19 144.87,25.95 1.73,1.73 -10.81,4.32 -28.11,5.62 -130.6,11.68 -278.49,74.38 -362.39,153.08l-27.68 25.95 13.84 35.9c7.79,19.89 13.41,36.75 12.11,37.62 -0.86,0.86 -20.32,4.76 -43.24,8.65 -29.41,4.76 -43.25,9.08 -45.84,14.27 -7.35,13.4 -38.92,136.65 -51.46,201.09 -34.6,174.27 -35.46,352.44 -3.03,478.28 12.11,45.84 37.19,108.98 50.6,124.98l8.64 10.81 -3.02 -20.33c-6.49,-48.86 15.57,-165.62 48,-249.95 34.16,-90.38 101.19,-212.76 167.36,-307.47l32.43 -45.84 -27.25 -36.32c-15.13,-19.9 -27.67,-37.63 -27.67,-38.92 0,-1.3 19.89,-1.73 44.54,-0.87l44.11 2.16 27.24 -37.19c28.98,-39.35 111.14,-134.49 134.93,-156.11 11.24,-10.38 14.7,-11.68 16.43,-6.49 0.87,3.46 9.95,14.27 19.89,23.79 27.25,26.38 64.44,35.03 96.01,21.62 11.67,-4.76 15.56,-4.76 16.86,-0.87 9.95,31.14 49.73,222.28 68.76,329.53 56.65,316.55 79.57,562.18 83.46,878.73 3.46,299.25 -9.08,491.69 -48.86,737.75 -6.06,37.63 -10.38,69.19 -9.52,70.06 5.62,5.62 90.38,24.22 127.57,28.11 63.14,6.49 135.36,-3.46 176.01,-24.65l12.54 -6.49 -3.03 -67.46c-27.67,-645.21 -121.95,-1316.8 -266.82,-1897.14 -14.27,-57.08 -26.81,-106.81 -27.67,-110.27 -1.3,-4.33 2.59,-8.65 11.67,-12.11 18.17,-6.49 17.3,-7.35 140.98,115.46l100.76 99.9 41.08 -6.92c22.49,-3.89 41.95,-6.06 42.82,-5.19 1.29,0.87 -1.73,14.27 -6.49,29.41 -4.76,15.13 -7.78,28.11 -7.35,28.54 0.43,0 30.27,15.57 66.59,33.73 174.28,88.65 316.12,208.44 404.34,339.9 16.87,25.08 30.7,45.84 31.57,46.71 1.73,2.16 -2.16,-36.33 -9.08,-87.79 -17.3,-125.84 -61.84,-247.79 -122.82,-334.71l-21.62 -30.28 -32.43 -1.29 -32.43 -1.3 17.73 -29.41 17.29 -29.4 -16.86 -20.33c-97.3,-115.89 -292.33,-223.14 -543.59,-299.25 -40.21,-12.11 -76.54,-23.78 -80,-25.08 -11.24,-5.19 52.33,-5.62 97.73,-1.3 106.82,10.81 223.15,47.14 305.74,95.14l28.98 17.3 19.03 -28.11 19.02 -28.11 22.06 36.32 21.62 36.33 47.14 -2.16c53.62,-2.17 181.62,5.18 258.17,14.7 75.24,9.51 212.76,38.05 288.87,59.68 65.73,19.02 167.36,54.05 190.28,66.16 6.92,3.46 13.4,5.62 14.27,4.76 3.46,-3.89 -69.63,-92.55 -117.2,-141.41 -77.84,-80.44 -161.73,-146.17 -251.68,-198.49l-30.7 -18.17 -43.68 25.52c-23.78,14.27 -44.11,24.65 -45.41,22.92 -0.86,-1.73 -4.32,-21.19 -7.35,-43.68 -3.03,-22.49 -8.22,-42.81 -10.81,-45.84 -5.19,-5.19 -86.92,-22.49 -162.6,-34.6 -124.98,-19.46 -308.76,-25.08 -423.79,-12.97 -71.79,7.35 -152.66,23.35 -203.25,39.79 -20.76,6.92 -36.33,10.81 -35.47,9.08 0.87,-1.3 29.41,-19.46 63.57,-39.79 169.09,-101.19 350.72,-161.3 531.91,-176.44 52.33,-4.32 63.57,-6.48 63.57,-11.67 0,-3.89 -3.03,-24.22 -6.92,-45.41 -3.46,-20.76 -5.62,-38.92 -4.75,-39.78 0.86,-1.3 30.7,10.38 66.16,25.94l64.43 27.68 15.14 -9.51c128.44,-77.84 270.71,-128.44 449.74,-159.58l58.38 -10.38 -60.54 -30.27c-115.46,-57.94 -228.76,-97.73 -339.47,-119.78 -80,-16 -171.25,-22.92 -213.19,-16.87l0 0z"/>
   <path class="fil0" d="M15682.91 15144.56c-70.29,5.23 -180,28.98 -213.24,46.55 -10.45,5.22 -15.2,13.3 -23.75,43.22l-10.45 36.57 -26.12 -25.65 -26.12 -25.65 -31.82 16.63c-45.59,23.27 -120.63,74.56 -162.42,110.65 -79.32,68.39 -146.28,162.9 -182.85,258.84l-13.3 34.67 -17.1 -32.77c-37.04,-69.34 -92.13,-134.4 -153.4,-179.52 -48.44,-35.62 -52.72,-37.05 -80.74,-27.55 -16.14,5.23 -25.17,6.18 -28.49,2.85 -2.85,-2.85 -6.18,-19 -7.6,-36.57l-2.38 -31.82 -21.84 -9.5c-59.84,-25.64 -164.8,-51.77 -244.59,-61.26 -56.04,-6.65 -265.49,0.95 -344.8,12.82 -154.83,22.32 -283.53,79.79 -367.59,164.33 -18.05,18.04 -31.82,33.71 -30.4,34.67 1.42,1.42 20.42,-1.43 42.27,-6.65 21.85,-5.23 56.99,-11.88 77.89,-15.68 40.84,-6.17 200.89,-8.55 221.31,-2.85 9.98,2.85 18.05,-0.95 47.5,-22.32 19.47,-14.25 36.57,-26.12 37.99,-26.12 1.9,0 4.75,15.2 6.65,33.24 1.9,18.53 5.22,34.2 7.12,35.62 2.38,1.43 30.4,5.7 62.7,9.98 32.29,3.8 83.58,11.87 113.98,18.04 59.36,11.88 174.77,45.12 174.77,49.87 0,1.9 -18.52,6.65 -40.84,11.4 -94.04,19.47 -213.24,66.97 -286.86,114.93 -19.47,12.83 -57.94,45.6 -85.49,73.14 -39.42,39.42 -54.61,58.42 -69.81,88.34 -16.15,31.34 -26.12,43.22 -54.14,66.49 -61.27,50.82 -139.63,156.25 -163.85,219.42l-8.08 20.89 27.07 27.55 27.07 27.54 -36.56 17.58 -36.57 17.09 2.85 58.42c5.22,99.26 29.44,193.77 70.28,274.98 19,37.52 52.25,90.72 59.85,95.46 2.37,1.43 3.32,-31.82 2.37,-73.61 -1.42,-87.86 8.07,-157.68 32.3,-231.77 16.62,-51.76 65.06,-153.4 70.76,-150.07 2.38,1.42 5.23,8.54 6.65,15.67 1.42,7.6 6.17,21.85 10.92,32.29l8.08 19 6.65 -33.24c12.82,-63.64 56.51,-175.25 72.66,-185.22 2.37,-1.43 11.87,2.85 20.9,9.49l16.14 12.35 28.02 -13.77c49.87,-25.17 141.06,-53.67 208.02,-65.07l19 -3.32 -40.84 42.27c-47.5,48.44 -74.09,86.91 -100.21,142.48 -21.38,45.59 -41.8,120.63 -41.8,153.4l0 22.79 26.12 10.93 26.13 10.92 -23.28 23.75 -23.74 24.22 16.62 40.37c16.62,40.37 16.62,40.37 11.4,80.74 -6.17,50.34 -6.17,93.56 0,130.6 2.37,15.67 5.22,74.56 6.65,130.61 1.9,107.81 10.92,176.2 31.34,244.58 10.45,34.2 47.02,116.36 51.77,116.36 1.42,0 2.85,-25.17 3.32,-56.04 0.48,-63.16 9.03,-111.13 33.72,-185.22 34.67,-104.96 93.56,-220.37 175.25,-341.47l48.44 -72.19 -28.02 -37.05c-15.19,-20.42 -28.02,-38.94 -28.02,-40.84 0,-2.38 19.95,-2.85 44.17,-0.95l44.64 3.32 16.15 -20.42 16.15 -20.42 8.07 75.99c23.27,212.29 85.49,378.99 177.15,473.5 21.85,23.27 31.34,27.07 21.85,9.02 -9.98,-18.99 -24.23,-89.28 -27.07,-136.3 -5.7,-87.86 16.62,-242.69 50.34,-349.07 7.6,-24.7 14.25,-45.12 14.25,-45.6 0,0 -13.78,-9.97 -30.88,-21.37 -17.09,-11.4 -30.87,-21.85 -30.87,-23.27 0,-1.9 14.73,-6.65 32.77,-11.4 28.5,-7.6 33.72,-10.45 37.52,-21.85 4.28,-11.87 7.13,-12.82 37.05,-15.67 18.05,-1.42 33.24,-1.9 33.72,-1.42 0.47,0 10.45,47.49 22.79,104.48 65.07,310.13 104.49,605.54 121.59,918.04 7.12,135.83 3.32,520.05 -7.13,637.83 -9.02,105.43 -28.02,258.83 -42.74,345.75l-10.45 63.16 30.87 9.5c97.83,29.92 202.79,30.4 278.31,0.48l23.74 -9.5 -1.42 -56.05c-5.22,-204.69 -31.82,-538.56 -65.54,-823.52 -42.27,-357.62 -115.41,-775.56 -193.77,-1104.21 -16.62,-70.76 -29.92,-128.71 -28.97,-129.66 0.95,-0.95 11.87,16.63 24.22,38.47 25.17,44.17 28.02,46.07 76.94,46.07l20.42 0 -12.82 23.75 -12.82 23.27 16.14 13.3c31.35,25.17 119.68,113.51 146.76,146.28 59.36,72.18 113.98,167.65 140.1,244.11l10.45 31.34 6.65 -35.61c4.27,-22.33 6.17,-67.92 6.17,-121.11 0,-81.21 -2.38,-102.59 -19,-165.75l-3.32 -13.77 28.02 15.67c51.77,28.5 146.28,94.51 194.25,134.4 79.31,66.49 150.07,145.81 194.72,219.42l17.57 28.5 -2.85 -44.65c-8.55,-131.55 -60.32,-290.18 -129.18,-393.24l-26.12 -39.42 -35.62 0c-19.48,0 -35.15,-0.95 -35.15,-2.37 0,-0.95 8.55,-16.15 18.52,-32.77l19 -30.4 -30.4 -35.62c-17.09,-19.47 -34.19,-37.04 -38.46,-38.47 -4.28,-1.9 -7.13,-4.27 -5.7,-5.7 4.27,-3.79 96.41,38.47 161.47,74.57 61.27,33.72 134.41,79.79 166.7,104.96 10.93,8.55 17.57,11.87 17.57,7.6 0,-3.33 -10.44,-28.03 -23.74,-55.1 -12.82,-26.59 -21.37,-48.44 -19,-48.44 1.9,0 4.75,2.85 6.18,5.7 0.95,3.32 3.32,4.75 5.22,3.32 4.27,-4.27 -46.07,-104 -73.14,-143.9 -12.82,-19.47 -34.19,-48.44 -47.49,-64.11 -28.5,-34.2 -31.82,-32.77 56.04,-21.85 138.68,17.1 296.35,54.14 423.64,98.78 40.36,14.25 81.68,29.45 92.13,33.72l18.05 8.08 -10.92 -15.68c-65.07,-93.08 -182.85,-210.39 -287.81,-285.43 -34.67,-25.17 -116.36,-74.56 -123.01,-74.56 -2.85,0 -25.64,11.87 -49.86,26.12l-44.65 26.12 -7.59 -47.49c-3.8,-26.12 -9.5,-49.39 -11.88,-51.77 -4.75,-4.27 -122.53,-28.97 -139.15,-28.97 -5.7,0 -9.97,-1.9 -9.97,-3.8 0,-6.65 111.6,-24.69 179.52,-29.44 37.52,-2.38 87.86,-2.38 129.65,0 90.24,6.17 82.64,6.17 75.04,-3.33 -6.17,-7.12 -3.8,-7.6 28.02,-4.75 18.52,1.43 34.2,1.9 34.2,1.43 0,-2.85 -78.36,-53.67 -109.71,-70.77 -17.1,-9.5 -52.24,-26.59 -78.36,-38.47 -25.65,-11.39 -59.84,-28.49 -75.52,-37.99 -46.07,-28.5 -119.68,-62.22 -171.92,-78.84 -38.95,-12.35 -48.92,-17.1 -48.92,-24.22 0,-5.22 0.95,-9.02 1.9,-9.02 1.42,0 32.29,12.82 69.34,28.49l67.44 28.02 49.39 -28.49c113.98,-66.49 281.16,-122.53 448.81,-150.08 57.47,-9.5 58.42,-8.07 -31.35,-51.29 -159.57,-76.47 -304.9,-119.21 -453.08,-132.98l-35.14 -3.33 39.89 -23.27c21.85,-12.82 49.87,-28.49 62.22,-34.19 12.34,-5.7 22.32,-11.88 22.79,-13.3 0,-3.33 -67.91,-12.82 -132.98,-18.52 -47.97,-4.28 -120.63,-4.75 -166.22,-1.43l0 0zm-1150.75 422.22l29.45 12.82 -12.83 15.67c-7.12,9.03 -13.77,16.15 -15.2,16.15 -1.42,0 -6.64,-7.12 -12.34,-15.67 -5.23,-8.08 -13.78,-20.9 -18.05,-28.5 -10.92,-16.15 -8.07,-16.15 28.97,-0.47l0 0z"/>
   <path class="fil0" d="M10679.99 16202.67c-3.02,4.03 8.06,29.23 25.19,54.42 23.18,35.27 30.23,55.43 27.21,84.65l-3.02 38.3 -139.07 70.54c-234.81,118.92 -292.26,171.32 -405.12,371.87 -68.53,120.93 -159.23,241.86 -221.71,297.28 -42.33,36.28 -86.67,40.31 -201.56,16.13 -43.33,-9.07 -82.63,-11.09 -100.77,-7.06l-29.23 8.07 50.39 25.19c30.23,15.12 50.39,32.25 52.4,44.34 2.02,11.09 13.1,30.23 24.19,42.33 19.15,21.16 19.15,23.18 3.02,98.76 -10.08,46.35 -14.11,80.62 -8.06,86.67 14.11,14.1 75.58,-34.27 138.06,-106.83 30.24,-36.28 59.46,-71.55 63.49,-79.61 4.03,-7.05 33.26,-19.15 63.49,-26.2 111.86,-25.19 238.84,-98.76 382.95,-221.71 90.7,-77.6 350.71,-171.32 474.66,-171.32l40.31 0 -45.35 39.3c-25.19,22.18 -55.43,42.33 -66.51,46.36 -11.09,3.02 -20.16,11.09 -20.16,17.13 0,7.06 20.16,9.07 62.48,4.03 62.48,-6.04 146.13,-38.29 199.54,-76.59 23.18,-16.12 37.29,-19.14 69.54,-14.1 23.18,4.03 41.32,9.07 41.32,12.09 0,3.02 -9.07,16.12 -21.17,28.22 -12.09,12.09 -18.14,27.21 -14.1,33.25 10.07,17.13 74.57,12.1 136.04,-9.07 78.61,-27.21 95.74,-25.19 172.33,21.17 54.42,32.24 75.58,40.31 106.82,37.28 35.27,-3.02 38.3,-5.04 36.28,-32.25 -1.01,-16.12 -15.11,-45.34 -31.24,-65.5 -18.14,-22.17 -33.25,-58.45 -40.31,-94.73 -34.26,-172.33 -203.57,-336.59 -390,-378.92 -27.21,-6.05 -90.7,-13.1 -140.08,-15.12 -83.65,-4.03 -90.7,-6.04 -93.72,-26.2 -11.09,-72.56 -106.82,-161.24 -174.35,-161.24 -10.08,0 -21.16,4.03 -24.18,9.07l0 0z"/>
  </g>
 </g>
</svg>
